<?xml version="1.0" encoding="iso-8859-1"?>
<!-- Uploaded to: SVG Repo, www.svgrepo.com, Generator: SVG Repo Mixer Tools -->
<!DOCTYPE svg PUBLIC "-//W3C//DTD SVG 1.1//EN" "http://www.w3.org/Graphics/SVG/1.1/DTD/svg11.dtd">
<svg fill="#FFFFFF" height="24" width="24" version="1.1" id="Capa_1" xmlns="http://www.w3.org/2000/svg" xmlns:xlink="http://www.w3.org/1999/xlink" 
	 viewBox="0 0 54.081 54.081" xml:space="preserve">
<g>
	<path d="M39.053,17.527c2.694-0.428,4.773-2.507,5.201-5.201l0.994-3.598l-3.597,0.994c-2.694,0.428-4.773,2.507-5.202,5.201
		l-0.435,1.577c0,0-0.001,0-0.001,0L0.293,52.221c-0.391,0.391-0.391,1.023,0,1.414C0.488,53.83,0.744,53.928,1,53.928
		s0.512-0.098,0.707-0.293L37.342,18L39.053,17.527z"/>
	<path d="M32.529,19.183l1.841-3.245c1.602-2.208,1.603-5.149,0-7.356l-1.841-3.247l-1.841,3.247c-1.603,2.207-1.603,5.147,0,7.356
		L32.529,19.183z"/>
	<path d="M37.991,19.559l-3.246,1.841l3.246,1.841c1.076,0.781,2.347,1.193,3.678,1.193s2.602-0.412,3.678-1.193l3.247-1.841
		l-3.247-1.841C43.194,17.996,40.143,17.996,37.991,19.559z"/>
	<path d="M26.165,25.548l1.841-3.247c1.603-2.208,1.603-5.147,0-7.355l-1.841-3.247l-1.841,3.247c-1.602,2.208-1.602,5.147,0,7.355
		L26.165,25.548z"/>
	<path d="M31.627,25.922l-3.246,1.841l3.246,1.841c1.076,0.781,2.346,1.194,3.678,1.194c1.332,0,2.602-0.413,3.678-1.194
		l3.245-1.841l-3.245-1.841C36.831,24.359,33.779,24.359,31.627,25.922z"/>
	<path d="M19.801,31.912l1.841-3.247c1.602-2.207,1.602-5.147,0-7.356l-1.841-3.245l-1.841,3.245c-1.603,2.209-1.603,5.149,0,7.356
		L19.801,31.912z"/>
	<path d="M25.263,32.286l-3.246,1.841l3.246,1.841c1.076,0.781,2.347,1.193,3.678,1.193c1.331,0,2.602-0.412,3.678-1.193
		l3.246-1.841l-3.246-1.841C30.467,30.724,27.416,30.725,25.263,32.286z"/>
	<path d="M13.437,38.274l1.841-3.245c1.603-2.208,1.603-5.148,0-7.356l-1.841-3.245l-1.841,3.245c-1.602,2.208-1.602,5.148,0,7.356
		L13.437,38.274z"/>
	<path d="M18.899,38.65l-3.246,1.841l3.246,1.841c1.076,0.781,2.347,1.193,3.678,1.193s2.602-0.412,3.678-1.193l3.246-1.841
		l-3.246-1.841C24.103,37.088,21.051,37.088,18.899,38.65z"/>
	<path d="M7.073,44.64l1.841-3.247c1.603-2.208,1.603-5.147,0-7.355L7.073,30.79l-1.841,3.247c-1.603,2.208-1.603,5.147,0,7.355
		L7.073,44.64z"/>
	<path d="M12.535,45.014l-3.246,1.841l3.246,1.841c1.076,0.781,2.346,1.194,3.678,1.194c1.332,0,2.602-0.413,3.678-1.194
		l3.246-1.841l-3.246-1.841C17.739,43.452,14.688,43.452,12.535,45.014z"/>
	<path d="M36.11,7.811c0.256,0,0.512-0.098,0.707-0.293l5.657-5.657c0.391-0.391,0.391-1.023,0-1.414s-1.023-0.391-1.414,0
		l-5.657,5.657c-0.391,0.391-0.391,1.023,0,1.414C35.599,7.713,35.854,7.811,36.11,7.811z"/>
	<path d="M39.646,8.932c0.195,0.195,0.451,0.293,0.707,0.293s0.512-0.098,0.707-0.293l7.071-7.071c0.391-0.391,0.391-1.023,0-1.414
		s-1.023-0.391-1.414,0l-7.071,7.071C39.255,7.908,39.255,8.541,39.646,8.932z"/>
	<path d="M52.374,6.104l-7.071,7.071c-0.391,0.391-0.391,1.023,0,1.414c0.195,0.195,0.451,0.293,0.707,0.293
		s0.512-0.098,0.707-0.293l7.071-7.071c0.391-0.391,0.391-1.023,0-1.414S52.765,5.713,52.374,6.104z"/>
	<path d="M46.01,8.225c0.195,0.195,0.451,0.293,0.707,0.293s0.512-0.098,0.707-0.293l6.364-6.364c0.391-0.391,0.391-1.023,0-1.414
		s-1.023-0.391-1.414,0L46.01,6.811C45.619,7.201,45.619,7.834,46.01,8.225z"/>
	<path d="M52.374,11.761l-5.657,5.656c-0.391,0.391-0.391,1.023,0,1.414c0.195,0.195,0.451,0.293,0.707,0.293
		s0.512-0.098,0.707-0.293l5.657-5.656c0.391-0.391,0.391-1.023,0-1.414S52.765,11.37,52.374,11.761z"/>
</g>
</svg>