<svg width="45" height="11" viewBox="0 0 45 11" fill="none" xmlns="http://www.w3.org/2000/svg">
<path fill-rule="evenodd" clip-rule="evenodd" d="M3.99998 0C3.16508 0 2.1752 0.788335 1.3587 2.11368C0.507684 3.48628 0 5.18553 0 6.66118C0 8.82144 1.23435 11 4.00021 11C6.76276 11 8.00043 8.82144 8.00043 6.66118C8.00043 5.18553 7.49297 3.48628 6.64607 2.11368C5.82191 0.788335 4.83214 0 3.99998 0ZM25.6001 3.24112H28.4003V10.4109H31.4004V3.24112H34.1994V0.588978H25.6001V3.24112ZM40.5998 3.24112H45V0.588978H40.5998C36.5573 0.588978 34.3983 2.56302 34.3983 5.49961C34.3983 8.4362 36.5573 10.4109 40.5998 10.4109H45V7.75888H40.5998C38.7288 7.75888 37.499 7.1021 37.499 5.49994C37.499 3.89779 38.7288 3.24112 40.5998 3.24112ZM19.4981 0.588978L17.8991 6.45127L16.3002 0.588978H11.0005V10.4109H13.9995V2.42203L16.179 10.4109H19.6192L21.7999 2.41721V10.4109H24.8001V0.588978H19.4981Z" fill="white"/>
</svg>
