<svg width="26" height="26" viewBox="0 0 26 26" fill="none" xmlns="http://www.w3.org/2000/svg">
<path d="M9.14062 4.67188H8.9375C9.04922 4.67188 9.14062 4.58047 9.14062 4.46875V4.67188H16.8594V4.46875C16.8594 4.58047 16.9508 4.67188 17.0625 4.67188H16.8594V6.5H18.6875V4.46875C18.6875 3.57246 17.9588 2.84375 17.0625 2.84375H8.9375C8.04121 2.84375 7.3125 3.57246 7.3125 4.46875V6.5H9.14062V4.67188ZM21.9375 6.5H4.0625C3.61309 6.5 3.25 6.86309 3.25 7.3125V8.125C3.25 8.23672 3.34141 8.32812 3.45312 8.32812H4.98672L5.61387 21.6074C5.65449 22.4732 6.37051 23.1562 7.23633 23.1562H18.7637C19.632 23.1562 20.3455 22.4758 20.3861 21.6074L21.0133 8.32812H22.5469C22.6586 8.32812 22.75 8.23672 22.75 8.125V7.3125C22.75 6.86309 22.3869 6.5 21.9375 6.5ZM18.5682 21.3281H7.43184L6.81738 8.32812H19.1826L18.5682 21.3281Z" fill="#6B6B6B"/>
</svg>
