<svg width="182" height="34" viewBox="0 0 182 34" fill="none" xmlns="http://www.w3.org/2000/svg">
<path fill-rule="evenodd" clip-rule="evenodd" d="M10.6685 4.00067C8.44222 4.00067 5.80269 6.15056 3.62547 9.76495C1.35621 13.5082 0.00245667 18.1423 0.00245667 22.1666C0.00245667 28.0579 3.29388 33.9991 10.6691 33.9991C18.0355 33.9991 21.3358 28.0579 21.3358 22.1666C21.3358 18.1423 19.9827 13.5082 17.7244 9.76495C15.5267 6.15056 12.8875 4.00067 10.6685 4.00067ZM68.2658 12.8396H75.7324V32.3926H83.7324V12.8396H91.1961V5.60689H68.2658V12.8387V12.8396ZM108.263 12.8396H119.996V5.60689H108.263C97.4833 5.60689 91.7263 10.9904 91.7263 18.9988C91.7263 27.0073 97.4833 32.3926 108.263 32.3926H119.996V25.1602H108.263C103.274 25.1602 99.9945 23.369 99.9945 18.9998C99.9945 14.6305 103.274 12.8396 108.263 12.8396ZM51.9945 5.60689L47.7309 21.5941L43.4673 5.60689H29.3355V32.3926H37.3324V10.6059L43.1442 32.3926H52.3176L58.1324 10.5927V32.3926H66.1324V5.60689H51.9945Z" fill="#E30613"/>
<path d="M134.992 17H131.508L129.25 12.6328L128.336 13.1797V17H125.234V5.57812H128.336V10.5391C128.492 10.2318 128.807 9.74479 129.281 9.07812L131.68 5.57812H135.055L131.453 10.6953L134.992 17ZM145.945 5.57812V12.4531C145.945 13.9479 145.521 15.1068 144.672 15.9297C143.828 16.7474 142.609 17.1562 141.016 17.1562C139.458 17.1562 138.26 16.7578 137.422 15.9609C136.589 15.1641 136.172 14.0182 136.172 12.5234V5.57812H139.273V12.2812C139.273 13.0885 139.424 13.6745 139.727 14.0391C140.029 14.4036 140.474 14.5859 141.062 14.5859C141.693 14.5859 142.148 14.4062 142.43 14.0469C142.716 13.6823 142.859 13.0885 142.859 12.2656V5.57812H145.945ZM151.43 12.8438V17H148.344V5.57812H152.086C155.19 5.57812 156.742 6.70312 156.742 8.95312C156.742 10.276 156.096 11.2995 154.805 12.0234L158.133 17H154.633L152.211 12.8438H151.43ZM151.43 10.5234H152.008C153.086 10.5234 153.625 10.0469 153.625 9.09375C153.625 8.30729 153.096 7.91406 152.039 7.91406H151.43V10.5234ZM166.641 13.5312C166.641 14.2396 166.461 14.8698 166.102 15.4219C165.742 15.9688 165.224 16.3958 164.547 16.7031C163.87 17.0052 163.076 17.1562 162.164 17.1562C161.404 17.1562 160.766 17.1042 160.25 17C159.734 16.8906 159.198 16.7031 158.641 16.4375V13.6875C159.229 13.9896 159.841 14.2266 160.477 14.3984C161.112 14.5651 161.695 14.6484 162.227 14.6484C162.685 14.6484 163.021 14.5703 163.234 14.4141C163.448 14.2526 163.555 14.0469 163.555 13.7969C163.555 13.6406 163.51 13.5052 163.422 13.3906C163.339 13.2708 163.201 13.151 163.008 13.0312C162.82 12.9115 162.315 12.6667 161.492 12.2969C160.747 11.9583 160.188 11.6302 159.812 11.3125C159.443 10.9948 159.167 10.6302 158.984 10.2188C158.807 9.80729 158.719 9.32031 158.719 8.75781C158.719 7.70573 159.102 6.88542 159.867 6.29688C160.633 5.70833 161.685 5.41406 163.023 5.41406C164.206 5.41406 165.411 5.6875 166.641 6.23438L165.695 8.61719C164.628 8.1276 163.706 7.88281 162.93 7.88281C162.529 7.88281 162.237 7.95312 162.055 8.09375C161.872 8.23438 161.781 8.40885 161.781 8.61719C161.781 8.84115 161.896 9.04167 162.125 9.21875C162.359 9.39583 162.99 9.71875 164.016 10.1875C165 10.6302 165.682 11.1068 166.062 11.6172C166.448 12.1224 166.641 12.7604 166.641 13.5312ZM178.164 17H174.68L172.422 12.6328L171.508 13.1797V17H168.406V5.57812H171.508V10.5391C171.664 10.2318 171.979 9.74479 172.453 9.07812L174.852 5.57812H178.227L174.625 10.6953L178.164 17Z" fill="#E30613"/>
</svg>
