<svg width="120" height="120" viewBox="0 0 120 120" fill="none" xmlns="http://www.w3.org/2000/svg">
<path fill-rule="evenodd" clip-rule="evenodd" d="M83.2009 43.659C85.3223 45.4268 85.6089 48.5797 83.8411 50.7011L58.8411 80.7011C57.9418 81.7803 56.6299 82.4314 55.2266 82.495C53.8232 82.5587 52.4578 82.029 51.4645 81.0357L36.4645 66.0357C34.5118 64.083 34.5118 60.9172 36.4645 58.9646C38.4171 57.012 41.5829 57.012 43.5355 58.9646L54.664 70.0931L76.1589 44.2992C77.9267 42.1778 81.0795 41.8912 83.2009 43.659Z" fill="white"/>
<path fill-rule="evenodd" clip-rule="evenodd" d="M60 15C35.1472 15 15 35.1472 15 60C15 84.8528 35.1472 105 60 105C84.8528 105 105 84.8528 105 60C105 35.1472 84.8528 15 60 15ZM5 60C5 29.6243 29.6243 5 60 5C90.3757 5 115 29.6243 115 60C115 90.3757 90.3757 115 60 115C29.6243 115 5 90.3757 5 60Z" fill="white"/>
</svg>
