<svg width="59" height="59" viewBox="0 0 59 59" fill="none" xmlns="http://www.w3.org/2000/svg">
<rect width="59" height="59" fill="white"/>
<path d="M29.5 28C32.3849 28 34.8827 26.9653 36.9242 24.9237C38.965 22.8825 40 20.385 40 17.4997C40 14.6153 38.9653 12.1175 36.9238 10.0756C34.8824 8.03473 32.3846 7 29.5 7C26.6147 7 24.1173 8.03473 22.0762 10.0759C20.035 12.1171 19 14.615 19 17.4997C19 20.385 20.035 22.8829 22.0762 24.9241C24.118 26.9649 26.6157 28 29.5 28ZM23.8828 11.8823C25.449 10.3161 27.2863 9.55474 29.5 9.55474C31.7134 9.55474 33.551 10.3161 35.1175 11.8823C36.6837 13.4489 37.4453 15.2865 37.4453 17.4997C37.4453 19.7135 36.6837 21.5508 35.1175 23.1174C33.551 24.6839 31.7134 25.4453 29.5 25.4453C27.2869 25.4453 25.4497 24.6836 23.8828 23.1174C22.3163 21.5511 21.5547 19.7135 21.5547 17.4997C21.5547 15.2865 22.3163 13.4489 23.8828 11.8823Z" fill="#CACACA"/>
<path d="M46.9152 39.6143C46.8585 38.8228 46.7439 37.9593 46.5753 37.0476C46.405 36.1289 46.1858 35.2605 45.9233 34.4668C45.6519 33.6465 45.2835 32.8363 44.8274 32.06C44.3547 31.2542 43.7991 30.5525 43.1756 29.9751C42.5236 29.3711 41.7254 28.8854 40.8023 28.5312C39.8825 28.1788 38.8631 28.0003 37.7726 28.0003C37.3444 28.0003 36.9302 28.1705 36.1304 28.6747C35.6381 28.9856 35.0623 29.3451 34.4197 29.7427C33.8701 30.0817 33.1257 30.3994 32.2061 30.687C31.309 30.9681 30.3981 31.1107 29.4987 31.1107C28.6 31.1107 27.6891 30.9681 26.7913 30.687C25.8727 30.3997 25.128 30.0821 24.5794 29.743C23.9428 29.3491 23.3667 28.9896 22.867 28.6744C22.0679 28.1701 21.6537 28 21.2255 28C20.1347 28 19.1156 28.1788 18.1961 28.5315C17.2737 28.8851 16.4751 29.3708 15.8225 29.9754C15.199 30.5531 14.6434 31.2545 14.171 32.06C13.7155 32.8363 13.3468 33.6462 13.0754 34.4671C12.8133 35.2609 12.594 36.1289 12.4238 37.0476C12.2548 37.9581 12.1405 38.8219 12.0839 39.6153C12.0282 40.391 12 41.1983 12 42.014C12 44.1345 12.6961 45.8512 14.0689 47.1172C15.4247 48.3665 17.2183 49 19.4001 49H39.5999C41.7811 49 43.5747 48.3665 44.9308 47.1172C46.3039 45.8521 47 44.1348 47 42.0137C46.9997 41.1952 46.9712 40.3879 46.9152 39.6143ZM43.2358 45.3925C42.3399 46.2181 41.1506 46.6195 39.5995 46.6195H19.4001C17.8488 46.6195 16.6595 46.2181 15.7639 45.3928C14.8854 44.583 14.4584 43.4775 14.4584 42.014C14.4584 41.2529 14.4843 40.5013 14.5362 39.7798C14.5867 39.072 14.6901 38.2944 14.8434 37.4681C14.9948 36.6521 15.1875 35.8863 15.4167 35.193C15.6365 34.5282 15.9364 33.8699 16.3083 33.2358C16.6633 32.6315 17.0717 32.113 17.5223 31.6952C17.9439 31.3044 18.4752 30.9845 19.1012 30.7447C19.6802 30.5228 20.3309 30.4013 21.0373 30.383C21.1234 30.4273 21.2767 30.5119 21.525 30.6687C22.0304 30.9876 22.6129 31.3515 23.2569 31.7497C23.9828 32.1979 24.918 32.6027 26.0353 32.9519C27.1776 33.3096 28.3427 33.4912 29.499 33.4912C30.6554 33.4912 31.8208 33.3096 32.9624 32.9522C34.0807 32.6023 35.0156 32.1979 35.7425 31.7491C36.4015 31.3413 36.9677 30.988 37.4731 30.6687C37.7214 30.5122 37.8747 30.4273 37.9608 30.383C38.6675 30.4013 39.3182 30.5228 39.8975 30.7447C40.5232 30.9845 41.0545 31.3047 41.4761 31.6952C41.9267 32.1127 42.3351 32.6312 42.6901 33.2361C43.0623 33.8699 43.3625 34.5285 43.5821 35.1927C43.8115 35.8869 44.0045 36.6524 44.1556 37.4678C44.3086 38.2956 44.4123 39.0735 44.4629 39.7801V39.7808C44.515 40.4995 44.5413 41.2507 44.5416 42.014C44.5413 43.4778 44.1143 44.583 43.2358 45.3925Z" fill="#CACACA"/>
</svg>
